<mxfile host="Electron" modified="2024-05-20T03:11:59.478Z" agent="Mozilla/5.0 (Windows NT 10.0; Win64; x64) AppleWebKit/537.36 (KHTML, like Gecko) draw.io/24.4.0 Chrome/120.0.6099.109 Electron/28.1.0 Safari/537.36" etag="oKl4T6zqg22PTrthMwNG" version="24.4.0" type="device">
  <diagram name="Page-1" id="KZN-zyBD-0XipZeYQRDT">
    <mxGraphModel dx="572" dy="331" grid="1" gridSize="10" guides="1" tooltips="1" connect="1" arrows="1" fold="1" page="1" pageScale="1" pageWidth="500" pageHeight="200" math="0" shadow="0">
      <root>
        <mxCell id="0" />
        <mxCell id="1" parent="0" />
        <mxCell id="rMmz9E26AdafoM2-XH3v-53" value="" style="group" vertex="1" connectable="0" parent="1">
          <mxGeometry x="9" y="56" width="482.6" height="88.9" as="geometry" />
        </mxCell>
        <mxCell id="PZP4gdgeWaH-fIwLRfgN-368" value="" style="rounded=0;whiteSpace=wrap;html=1;fillColor=#000000;strokeColor=#111111;glass=0;container=0;" parent="rMmz9E26AdafoM2-XH3v-53" vertex="1">
          <mxGeometry width="482.6" height="88.9" as="geometry" />
        </mxCell>
        <mxCell id="ZiPsxMh2GIwE2ub0tuqV-34" value="" style="rounded=0;whiteSpace=wrap;html=1;fillColor=#000000;strokeColor=#111111;glass=0;container=0;" parent="rMmz9E26AdafoM2-XH3v-53" vertex="1">
          <mxGeometry x="18" width="446.6" height="88.9" as="geometry" />
        </mxCell>
        <mxCell id="ZiPsxMh2GIwE2ub0tuqV-45" value="" style="group" parent="rMmz9E26AdafoM2-XH3v-53" vertex="1" connectable="0">
          <mxGeometry x="468.85" y="3" width="10" height="38.45" as="geometry" />
        </mxCell>
        <mxCell id="ZiPsxMh2GIwE2ub0tuqV-35" value="" style="group;strokeColor=#111111;rounded=1;arcSize=50;" parent="ZiPsxMh2GIwE2ub0tuqV-45" vertex="1" connectable="0">
          <mxGeometry width="10" height="6" as="geometry" />
        </mxCell>
        <mxCell id="ZiPsxMh2GIwE2ub0tuqV-24" value="" style="rounded=0;whiteSpace=wrap;html=1;fillColor=#000000;fontColor=#ffffff;strokeColor=none;container=0;" parent="ZiPsxMh2GIwE2ub0tuqV-35" vertex="1">
          <mxGeometry x="3" width="4" height="6" as="geometry" />
        </mxCell>
        <mxCell id="ZiPsxMh2GIwE2ub0tuqV-25" value="" style="ellipse;whiteSpace=wrap;html=1;aspect=fixed;strokeColor=none;fillColor=#000000;container=0;" parent="ZiPsxMh2GIwE2ub0tuqV-35" vertex="1">
          <mxGeometry x="4" width="6" height="6" as="geometry" />
        </mxCell>
        <mxCell id="ZiPsxMh2GIwE2ub0tuqV-26" value="" style="ellipse;whiteSpace=wrap;html=1;aspect=fixed;strokeColor=none;fillColor=#000000;container=0;" parent="ZiPsxMh2GIwE2ub0tuqV-35" vertex="1">
          <mxGeometry width="6" height="6" as="geometry" />
        </mxCell>
        <mxCell id="ZiPsxMh2GIwE2ub0tuqV-36" value="" style="group;strokeColor=#111111;rounded=1;arcSize=50;" parent="ZiPsxMh2GIwE2ub0tuqV-45" vertex="1" connectable="0">
          <mxGeometry y="16.22" width="10" height="6" as="geometry" />
        </mxCell>
        <mxCell id="ZiPsxMh2GIwE2ub0tuqV-37" value="" style="rounded=0;whiteSpace=wrap;html=1;fillColor=#000000;fontColor=#ffffff;strokeColor=none;container=0;" parent="ZiPsxMh2GIwE2ub0tuqV-36" vertex="1">
          <mxGeometry x="3" width="4" height="6" as="geometry" />
        </mxCell>
        <mxCell id="ZiPsxMh2GIwE2ub0tuqV-38" value="" style="ellipse;whiteSpace=wrap;html=1;aspect=fixed;strokeColor=none;fillColor=#000000;container=0;" parent="ZiPsxMh2GIwE2ub0tuqV-36" vertex="1">
          <mxGeometry x="4" width="6" height="6" as="geometry" />
        </mxCell>
        <mxCell id="ZiPsxMh2GIwE2ub0tuqV-39" value="" style="ellipse;whiteSpace=wrap;html=1;aspect=fixed;strokeColor=none;fillColor=#000000;container=0;" parent="ZiPsxMh2GIwE2ub0tuqV-36" vertex="1">
          <mxGeometry width="6" height="6" as="geometry" />
        </mxCell>
        <mxCell id="ZiPsxMh2GIwE2ub0tuqV-40" value="" style="group;strokeColor=#111111;rounded=1;arcSize=50;" parent="ZiPsxMh2GIwE2ub0tuqV-45" vertex="1" connectable="0">
          <mxGeometry y="32.45" width="10" height="6" as="geometry" />
        </mxCell>
        <mxCell id="ZiPsxMh2GIwE2ub0tuqV-41" value="" style="rounded=0;whiteSpace=wrap;html=1;fillColor=#000000;fontColor=#ffffff;strokeColor=none;container=0;" parent="ZiPsxMh2GIwE2ub0tuqV-40" vertex="1">
          <mxGeometry x="3" width="4" height="6" as="geometry" />
        </mxCell>
        <mxCell id="ZiPsxMh2GIwE2ub0tuqV-42" value="" style="ellipse;whiteSpace=wrap;html=1;aspect=fixed;strokeColor=none;fillColor=#000000;container=0;" parent="ZiPsxMh2GIwE2ub0tuqV-40" vertex="1">
          <mxGeometry x="4" width="6" height="6" as="geometry" />
        </mxCell>
        <mxCell id="ZiPsxMh2GIwE2ub0tuqV-43" value="" style="ellipse;whiteSpace=wrap;html=1;aspect=fixed;strokeColor=none;fillColor=#000000;container=0;" parent="ZiPsxMh2GIwE2ub0tuqV-40" vertex="1">
          <mxGeometry width="6" height="6" as="geometry" />
        </mxCell>
        <mxCell id="ZiPsxMh2GIwE2ub0tuqV-46" value="" style="group" parent="rMmz9E26AdafoM2-XH3v-53" vertex="1" connectable="0">
          <mxGeometry x="4" y="47.45" width="10" height="38.45" as="geometry" />
        </mxCell>
        <mxCell id="ZiPsxMh2GIwE2ub0tuqV-47" value="" style="group;strokeColor=#111111;rounded=1;arcSize=50;" parent="ZiPsxMh2GIwE2ub0tuqV-46" vertex="1" connectable="0">
          <mxGeometry width="10" height="6" as="geometry" />
        </mxCell>
        <mxCell id="ZiPsxMh2GIwE2ub0tuqV-48" value="" style="rounded=0;whiteSpace=wrap;html=1;fillColor=#000000;fontColor=#ffffff;strokeColor=none;container=0;" parent="ZiPsxMh2GIwE2ub0tuqV-47" vertex="1">
          <mxGeometry x="3" width="4" height="6" as="geometry" />
        </mxCell>
        <mxCell id="ZiPsxMh2GIwE2ub0tuqV-49" value="" style="ellipse;whiteSpace=wrap;html=1;aspect=fixed;strokeColor=none;fillColor=#000000;container=0;" parent="ZiPsxMh2GIwE2ub0tuqV-47" vertex="1">
          <mxGeometry x="4" width="6" height="6" as="geometry" />
        </mxCell>
        <mxCell id="ZiPsxMh2GIwE2ub0tuqV-50" value="" style="ellipse;whiteSpace=wrap;html=1;aspect=fixed;strokeColor=none;fillColor=#000000;container=0;" parent="ZiPsxMh2GIwE2ub0tuqV-47" vertex="1">
          <mxGeometry width="6" height="6" as="geometry" />
        </mxCell>
        <mxCell id="ZiPsxMh2GIwE2ub0tuqV-51" value="" style="group;strokeColor=#111111;rounded=1;arcSize=50;" parent="ZiPsxMh2GIwE2ub0tuqV-46" vertex="1" connectable="0">
          <mxGeometry y="16.22" width="10" height="6" as="geometry" />
        </mxCell>
        <mxCell id="ZiPsxMh2GIwE2ub0tuqV-52" value="" style="rounded=0;whiteSpace=wrap;html=1;fillColor=#000000;fontColor=#ffffff;strokeColor=none;container=0;" parent="ZiPsxMh2GIwE2ub0tuqV-51" vertex="1">
          <mxGeometry x="3" width="4" height="6" as="geometry" />
        </mxCell>
        <mxCell id="ZiPsxMh2GIwE2ub0tuqV-53" value="" style="ellipse;whiteSpace=wrap;html=1;aspect=fixed;strokeColor=none;fillColor=#000000;container=0;" parent="ZiPsxMh2GIwE2ub0tuqV-51" vertex="1">
          <mxGeometry x="4" width="6" height="6" as="geometry" />
        </mxCell>
        <mxCell id="ZiPsxMh2GIwE2ub0tuqV-54" value="" style="ellipse;whiteSpace=wrap;html=1;aspect=fixed;strokeColor=none;fillColor=#000000;container=0;" parent="ZiPsxMh2GIwE2ub0tuqV-51" vertex="1">
          <mxGeometry width="6" height="6" as="geometry" />
        </mxCell>
        <mxCell id="ZiPsxMh2GIwE2ub0tuqV-55" value="" style="group;strokeColor=#111111;rounded=1;arcSize=50;" parent="ZiPsxMh2GIwE2ub0tuqV-46" vertex="1" connectable="0">
          <mxGeometry y="32.45" width="10" height="6" as="geometry" />
        </mxCell>
        <mxCell id="ZiPsxMh2GIwE2ub0tuqV-56" value="" style="rounded=0;whiteSpace=wrap;html=1;fillColor=#000000;fontColor=#ffffff;strokeColor=none;container=0;" parent="ZiPsxMh2GIwE2ub0tuqV-55" vertex="1">
          <mxGeometry x="3" width="4" height="6" as="geometry" />
        </mxCell>
        <mxCell id="ZiPsxMh2GIwE2ub0tuqV-57" value="" style="ellipse;whiteSpace=wrap;html=1;aspect=fixed;strokeColor=none;fillColor=#000000;container=0;" parent="ZiPsxMh2GIwE2ub0tuqV-55" vertex="1">
          <mxGeometry x="4" width="6" height="6" as="geometry" />
        </mxCell>
        <mxCell id="ZiPsxMh2GIwE2ub0tuqV-58" value="" style="ellipse;whiteSpace=wrap;html=1;aspect=fixed;strokeColor=none;fillColor=#000000;container=0;" parent="ZiPsxMh2GIwE2ub0tuqV-55" vertex="1">
          <mxGeometry width="6" height="6" as="geometry" />
        </mxCell>
        <mxCell id="ZiPsxMh2GIwE2ub0tuqV-64" value="" style="shape=image;verticalLabelPosition=bottom;labelBackgroundColor=default;verticalAlign=top;aspect=fixed;imageAspect=0;image=data:image/svg+xml,PHN2ZyB4bWxuczp4bGluaz0iaHR0cDovL3d3dy53My5vcmcvMTk5OS94bGluayIgeG1sbnM9Imh0dHA6Ly93d3cudzMub3JnLzIwMDAvc3ZnIiB4bWw6c3BhY2U9InByZXNlcnZlIiBzdHlsZT0iZW5hYmxlLWJhY2tncm91bmQ6bmV3IDAgMCA3NC40IDc0Ljk7IiB2aWV3Qm94PSIwIDAgNzQuNCA3NC45IiB5PSIwcHgiIHg9IjBweCIgaWQ9InV1aWQtMWJmYWM2NzgtNjU5Yi00ZGNiLWFlNTctYWY0Mzk4MDVhNzM4IiB2ZXJzaW9uPSIxLjEiPiYjeGE7PHN0eWxlIHR5cGU9InRleHQvY3NzIj4mI3hhOwkuc3Qwe2ZpbGw6bm9uZTt9JiN4YTsJLnN0MXtmaWxsOiNCQ0JFQzA7fSYjeGE7PC9zdHlsZT4mI3hhOzxwYXRoIGQ9Ik03NC40LDc0LjlIMFYwaDc0LjRWNzQuOXogTTYyLjksMTQuNWMtOS4yLTEwLjgtMjcuOC0xNi4yLTQzLjgtNkMzLjMsMTguNS0yLDM5LjcsOC42LDU2LjEmIzEwOyYjOTtjMTAuMywxNiwzMS41LDIwLjksNDcuOCwxMC4yYzE2LjMtMTAuOCwxNy45LTMwLjEsMTMuMy00MC41Yy0wLjcsMC4xLTEuNCwwLjMtMi4xLDAuM2MtMTIuNCwwLTI0LjcsMC0zNy4xLDBjLTIsMC0zLjYtMS00LjctMi42JiMxMDsmIzk7Yy0xLjItMS45LTEuMy0zLjgtMC4zLTUuOGMxLjEtMi4xLDIuOS0zLjEsNS4zLTMuMWMxMC4yLDAsMjAuNSwwLDMwLjcsMEM2MS45LDE0LjUsNjIuNCwxNC41LDYyLjksMTQuNUw2Mi45LDE0LjV6IE02My45LDE0LjYmIzEwOyYjOTtjMi4xLDMuNSw0LjIsNyw2LjMsMTAuNmMyLTAuOSwzLjItMy4zLDIuOS01LjdjLTAuNC0yLjYtMi4zLTQuNi00LjktNC45QzY2LjcsMTQuNSw2NS4yLDE0LjYsNjMuOSwxNC42TDYzLjksMTQuNnoiIGNsYXNzPSJzdDAiLz4mI3hhOzxnPiYjeGE7CTxwYXRoIGQ9Ik02Mi45LDE0LjVjLTAuNSwwLTEsMC0xLjQsMGMtMTAuMiwwLTIwLjUsMC0zMC43LDBjLTIuNCwwLTQuMSwxLjEtNS4zLDMuMWMtMSwyLTAuOSwzLjksMC4zLDUuOCYjMTA7JiM5OyYjOTtjMS4xLDEuNywyLjcsMi42LDQuNywyLjZjMTIuNCwwLDI0LjcsMCwzNy4xLDBjMC43LDAsMS40LTAuMiwyLjEtMC4zYzQuNywxMC41LDMuMSwyOS43LTEzLjMsNDAuNUM0MC4xLDc3LjEsMTguOSw3Mi4xLDguNiw1Ni4xJiMxMDsmIzk7JiM5O0MtMiwzOS43LDMuMywxOC41LDE5LjEsOC41QzM1LjItMS43LDUzLjgsMy43LDYyLjksMTQuNXogTTQwLjEsNDMuM2MzLjMsMCw2LjUsMCw5LjgsMGMwLjcsMCwxLjQsMCwyLTAuMWMyLjYtMC41LDQuNS0yLjksNC4zLTUuNSYjMTA7JiM5OyYjOTtjLTAuMi0yLjgtMi40LTQuOC01LjMtNC44Yy03LjIsMC0xNC40LDAtMjEuNSwwYy0zLjEsMC01LjQsMi4zLTUuNCw1LjJjMCwzLDIuNCw1LjIsNS41LDUuMkMzMyw0My4zLDM2LjUsNDMuMyw0MC4xLDQzLjMmIzEwOyYjOTsmIzk7TDQwLjEsNDMuM3ogTTMyLjMsNTkuNGMxLjUsMCwzLjEsMCw0LjcsMGMyLjYsMCw0LjUtMiw0LjYtNC41YzAtMi41LTEuOS00LjYtNC41LTQuN2MtMy4yLTAuMS02LjQtMC4xLTkuNSwwJiMxMDsmIzk7JiM5O2MtMi41LDAtNC41LDIuMS00LjUsNC43czIsNC41LDQuNiw0LjZDMjkuMiw1OS40LDMwLjcsNTkuNCwzMi4zLDU5LjR6IiBjbGFzcz0ic3QxIi8+JiN4YTsJPHBhdGggZD0iTTYzLjgsMTQuN2MxLjMsMCwyLjgtMC4xLDQuMywwYzIuNSwwLjIsNC41LDIuMyw0LjksNC44YzAuNCwyLjQtMC45LDQuNy0yLjksNS43QzY4LDIxLjcsNjUuOSwxOC4yLDYzLjgsMTQuNyYjMTA7JiM5OyYjOTtMNjMuOCwxNC43eiIgY2xhc3M9InN0MSIvPiYjeGE7PC9nPiYjeGE7PC9zdmc+;" parent="rMmz9E26AdafoM2-XH3v-53" vertex="1">
          <mxGeometry x="34" y="16.73" width="10.85" height="11" as="geometry" />
        </mxCell>
        <mxCell id="rMmz9E26AdafoM2-XH3v-27" value="" style="group" vertex="1" connectable="0" parent="rMmz9E26AdafoM2-XH3v-53">
          <mxGeometry x="468.85" y="47.45" width="10" height="38.45" as="geometry" />
        </mxCell>
        <mxCell id="rMmz9E26AdafoM2-XH3v-28" value="" style="group;strokeColor=#111111;rounded=1;arcSize=50;" vertex="1" connectable="0" parent="rMmz9E26AdafoM2-XH3v-27">
          <mxGeometry width="10" height="6" as="geometry" />
        </mxCell>
        <mxCell id="rMmz9E26AdafoM2-XH3v-29" value="" style="rounded=0;whiteSpace=wrap;html=1;fillColor=#000000;fontColor=#ffffff;strokeColor=none;container=0;" vertex="1" parent="rMmz9E26AdafoM2-XH3v-28">
          <mxGeometry x="3" width="4" height="6" as="geometry" />
        </mxCell>
        <mxCell id="rMmz9E26AdafoM2-XH3v-30" value="" style="ellipse;whiteSpace=wrap;html=1;aspect=fixed;strokeColor=none;fillColor=#000000;container=0;" vertex="1" parent="rMmz9E26AdafoM2-XH3v-28">
          <mxGeometry x="4" width="6" height="6" as="geometry" />
        </mxCell>
        <mxCell id="rMmz9E26AdafoM2-XH3v-31" value="" style="ellipse;whiteSpace=wrap;html=1;aspect=fixed;strokeColor=none;fillColor=#000000;container=0;" vertex="1" parent="rMmz9E26AdafoM2-XH3v-28">
          <mxGeometry width="6" height="6" as="geometry" />
        </mxCell>
        <mxCell id="rMmz9E26AdafoM2-XH3v-32" value="" style="group;strokeColor=#111111;rounded=1;arcSize=50;" vertex="1" connectable="0" parent="rMmz9E26AdafoM2-XH3v-27">
          <mxGeometry y="16.22" width="10" height="6" as="geometry" />
        </mxCell>
        <mxCell id="rMmz9E26AdafoM2-XH3v-33" value="" style="rounded=0;whiteSpace=wrap;html=1;fillColor=#000000;fontColor=#ffffff;strokeColor=none;container=0;" vertex="1" parent="rMmz9E26AdafoM2-XH3v-32">
          <mxGeometry x="3" width="4" height="6" as="geometry" />
        </mxCell>
        <mxCell id="rMmz9E26AdafoM2-XH3v-34" value="" style="ellipse;whiteSpace=wrap;html=1;aspect=fixed;strokeColor=none;fillColor=#000000;container=0;" vertex="1" parent="rMmz9E26AdafoM2-XH3v-32">
          <mxGeometry x="4" width="6" height="6" as="geometry" />
        </mxCell>
        <mxCell id="rMmz9E26AdafoM2-XH3v-35" value="" style="ellipse;whiteSpace=wrap;html=1;aspect=fixed;strokeColor=none;fillColor=#000000;container=0;" vertex="1" parent="rMmz9E26AdafoM2-XH3v-32">
          <mxGeometry width="6" height="6" as="geometry" />
        </mxCell>
        <mxCell id="rMmz9E26AdafoM2-XH3v-36" value="" style="group;strokeColor=#111111;rounded=1;arcSize=50;" vertex="1" connectable="0" parent="rMmz9E26AdafoM2-XH3v-27">
          <mxGeometry y="32.45" width="10" height="6" as="geometry" />
        </mxCell>
        <mxCell id="rMmz9E26AdafoM2-XH3v-37" value="" style="rounded=0;whiteSpace=wrap;html=1;fillColor=#000000;fontColor=#ffffff;strokeColor=none;container=0;" vertex="1" parent="rMmz9E26AdafoM2-XH3v-36">
          <mxGeometry x="3" width="4" height="6" as="geometry" />
        </mxCell>
        <mxCell id="rMmz9E26AdafoM2-XH3v-38" value="" style="ellipse;whiteSpace=wrap;html=1;aspect=fixed;strokeColor=none;fillColor=#000000;container=0;" vertex="1" parent="rMmz9E26AdafoM2-XH3v-36">
          <mxGeometry x="4" width="6" height="6" as="geometry" />
        </mxCell>
        <mxCell id="rMmz9E26AdafoM2-XH3v-39" value="" style="ellipse;whiteSpace=wrap;html=1;aspect=fixed;strokeColor=none;fillColor=#000000;container=0;" vertex="1" parent="rMmz9E26AdafoM2-XH3v-36">
          <mxGeometry width="6" height="6" as="geometry" />
        </mxCell>
        <mxCell id="rMmz9E26AdafoM2-XH3v-40" value="" style="group" vertex="1" connectable="0" parent="rMmz9E26AdafoM2-XH3v-53">
          <mxGeometry x="4" y="3" width="10" height="38.45" as="geometry" />
        </mxCell>
        <mxCell id="rMmz9E26AdafoM2-XH3v-41" value="" style="group;strokeColor=#111111;rounded=1;arcSize=50;" vertex="1" connectable="0" parent="rMmz9E26AdafoM2-XH3v-40">
          <mxGeometry width="10" height="6" as="geometry" />
        </mxCell>
        <mxCell id="rMmz9E26AdafoM2-XH3v-42" value="" style="rounded=0;whiteSpace=wrap;html=1;fillColor=#000000;fontColor=#ffffff;strokeColor=none;container=0;" vertex="1" parent="rMmz9E26AdafoM2-XH3v-41">
          <mxGeometry x="3" width="4" height="6" as="geometry" />
        </mxCell>
        <mxCell id="rMmz9E26AdafoM2-XH3v-43" value="" style="ellipse;whiteSpace=wrap;html=1;aspect=fixed;strokeColor=none;fillColor=#000000;container=0;" vertex="1" parent="rMmz9E26AdafoM2-XH3v-41">
          <mxGeometry x="4" width="6" height="6" as="geometry" />
        </mxCell>
        <mxCell id="rMmz9E26AdafoM2-XH3v-44" value="" style="ellipse;whiteSpace=wrap;html=1;aspect=fixed;strokeColor=none;fillColor=#000000;container=0;" vertex="1" parent="rMmz9E26AdafoM2-XH3v-41">
          <mxGeometry width="6" height="6" as="geometry" />
        </mxCell>
        <mxCell id="rMmz9E26AdafoM2-XH3v-45" value="" style="group;strokeColor=#111111;rounded=1;arcSize=50;" vertex="1" connectable="0" parent="rMmz9E26AdafoM2-XH3v-40">
          <mxGeometry y="16.22" width="10" height="6" as="geometry" />
        </mxCell>
        <mxCell id="rMmz9E26AdafoM2-XH3v-46" value="" style="rounded=0;whiteSpace=wrap;html=1;fillColor=#000000;fontColor=#ffffff;strokeColor=none;container=0;" vertex="1" parent="rMmz9E26AdafoM2-XH3v-45">
          <mxGeometry x="3" width="4" height="6" as="geometry" />
        </mxCell>
        <mxCell id="rMmz9E26AdafoM2-XH3v-47" value="" style="ellipse;whiteSpace=wrap;html=1;aspect=fixed;strokeColor=none;fillColor=#000000;container=0;" vertex="1" parent="rMmz9E26AdafoM2-XH3v-45">
          <mxGeometry x="4" width="6" height="6" as="geometry" />
        </mxCell>
        <mxCell id="rMmz9E26AdafoM2-XH3v-48" value="" style="ellipse;whiteSpace=wrap;html=1;aspect=fixed;strokeColor=none;fillColor=#000000;container=0;" vertex="1" parent="rMmz9E26AdafoM2-XH3v-45">
          <mxGeometry width="6" height="6" as="geometry" />
        </mxCell>
        <mxCell id="rMmz9E26AdafoM2-XH3v-49" value="" style="group;strokeColor=#111111;rounded=1;arcSize=50;" vertex="1" connectable="0" parent="rMmz9E26AdafoM2-XH3v-40">
          <mxGeometry y="32.45" width="10" height="6" as="geometry" />
        </mxCell>
        <mxCell id="rMmz9E26AdafoM2-XH3v-50" value="" style="rounded=0;whiteSpace=wrap;html=1;fillColor=#000000;fontColor=#ffffff;strokeColor=none;container=0;" vertex="1" parent="rMmz9E26AdafoM2-XH3v-49">
          <mxGeometry x="3" width="4" height="6" as="geometry" />
        </mxCell>
        <mxCell id="rMmz9E26AdafoM2-XH3v-51" value="" style="ellipse;whiteSpace=wrap;html=1;aspect=fixed;strokeColor=none;fillColor=#000000;container=0;" vertex="1" parent="rMmz9E26AdafoM2-XH3v-49">
          <mxGeometry x="4" width="6" height="6" as="geometry" />
        </mxCell>
        <mxCell id="rMmz9E26AdafoM2-XH3v-52" value="" style="ellipse;whiteSpace=wrap;html=1;aspect=fixed;strokeColor=none;fillColor=#000000;container=0;" vertex="1" parent="rMmz9E26AdafoM2-XH3v-49">
          <mxGeometry width="6" height="6" as="geometry" />
        </mxCell>
      </root>
    </mxGraphModel>
  </diagram>
</mxfile>
